<svg width="425" height="260" viewBox="0 0 425 260" fill="none" xmlns="http://www.w3.org/2000/svg">
<path d="M345.375 169.522L343.384 171.511H342.886L339.9 174.493H339.403L337.91 175.985H337.412L335.919 177.476H335.422L334.426 178.47H333.929L332.933 179.465H332.436L331.44 180.459H330.943L330.445 180.956H329.947L328.952 181.95H328.454L327.957 182.447H327.459L326.961 182.945H326.464L325.468 183.939H324.971L324.473 184.436H323.975L323.478 184.933H322.98L322.482 185.43H321.985L321.487 185.927H320.989L320.492 186.424H319.994L319.496 186.922H318.999L318.501 187.419H318.003L317.506 187.916H317.008L316.511 188.413H316.013L315.515 188.91H314.52L314.022 189.407H313.525L313.027 189.904H312.032L311.534 190.402H311.036L310.539 190.899H309.543L309.046 191.396H308.548L308.05 191.893H307.055L306.557 192.39H305.562L305.064 192.887H304.069L303.571 193.384H302.078L301.581 193.881H300.585L300.088 194.379H298.595L298.097 194.876H296.604L296.107 195.373H294.614L294.116 195.87H292.623L292.125 196.367H290.135L289.637 196.864H287.646L287.149 197.361H285.158L284.66 197.858H282.67L282.172 198.356H279.684L279.186 198.853H276.698L276.2 199.35H273.712L273.214 199.847H270.726L270.228 200.344H267.74L267.242 200.841H264.256L263.759 201.338H261.27L260.773 201.836H258.285L257.787 202.333H255.299L254.801 202.83H253.308L252.81 203.327H250.82L250.322 203.824H248.331L247.834 204.321H246.341L245.843 204.818H244.35L243.852 205.315H242.359L241.862 205.813H240.369L239.871 206.31H238.378L237.881 206.807H236.885L236.388 207.304H235.392L234.895 207.801H233.899L233.402 208.298H232.406L231.909 208.795H230.913L230.416 209.293H229.918L229.42 209.79H228.425L227.927 210.287H227.43L226.932 210.784H225.937L225.439 211.281H224.941L224.444 211.778H223.946L223.448 212.275H222.951L222.453 212.772H221.955L221.458 213.27H220.96L220.463 213.767H219.965L219.467 214.264H218.97L218.472 214.761H217.974L217.477 215.258H216.979L216.481 215.755H215.984L215.486 216.252H214.988L213.993 217.247H213.495L212.998 217.744H212.5L212.002 218.241H211.505L210.509 219.235H210.012L209.514 219.732H209.016L208.021 220.727H207.523L206.528 221.721H206.03L205.035 222.715H204.537L203.542 223.709H203.044L201.552 225.201H201.054L199.561 226.692H199.063L197.57 228.184H197.073L195.082 230.172H194.584L191.101 233.652H190.603L181.148 243.098V243.595L177.166 247.572V248.069L174.678 250.554V251.052L174.18 251.549V252.046L173.185 253.04L173.683 253.537H174.678L175.673 252.543H176.171L176.669 252.046H177.166L178.162 251.052H178.659L179.157 250.554H179.655L180.65 249.56H181.148L181.645 249.063H182.143L182.641 248.566H183.138L183.636 248.069H184.133L184.631 247.572H185.129L185.626 247.075H186.124L186.622 246.577H187.119L187.617 246.08H188.612L189.11 245.583H189.608L190.105 245.086H190.603L191.101 244.589H191.598L192.096 244.092H192.594L193.091 243.595H194.087L194.584 243.098H195.082L195.58 242.6H196.575L197.073 242.103H197.57L198.068 241.606H199.063L199.561 241.109H200.556L201.054 240.612H201.552L202.049 240.115H203.044L203.542 239.618H204.537L205.035 239.12H206.03L206.528 238.623H207.523L208.021 238.126H209.016L209.514 237.629H210.509L211.007 237.132H212.002L212.5 236.635H213.993L214.491 236.138H215.486L215.984 235.641H217.477L217.974 235.143H219.467L219.965 234.646H221.458L221.955 234.149H223.448L223.946 233.652H225.937L226.434 233.155H227.927L228.425 232.658H230.913L231.411 232.161H233.899L234.397 231.663H237.383L237.881 231.166H240.866L241.364 230.669H244.35L244.848 230.172H247.834L248.331 229.675H251.317L251.815 229.178H254.303L254.801 228.681H257.289L257.787 228.184H260.773L261.27 227.686H263.261L263.759 227.189H266.247L266.745 226.692H268.735L269.233 226.195H270.726L271.224 225.698H273.214L273.712 225.201H275.205L275.703 224.704H276.698L277.196 224.206H278.191L278.689 223.709H280.181L280.679 223.212H281.674L282.172 222.715H283.167L283.665 222.218H284.163L284.66 221.721H285.656L286.153 221.224H287.149L287.646 220.727H288.144L288.642 220.229H289.637L290.135 219.732H290.632L291.13 219.235H291.628L292.125 218.738H292.623L293.121 218.241H294.116L295.111 217.247H296.107L296.604 216.75H297.102L297.6 216.252H298.097L298.595 215.755H299.092L299.59 215.258H300.088L300.585 214.761H301.083L302.078 213.767H302.576L303.074 213.27H303.571L304.069 212.772H304.567L305.562 211.778H306.06L306.557 211.281H307.055L308.05 210.287H308.548L309.046 209.79H309.543L310.539 208.795H311.036L312.032 207.801H312.529L314.022 206.31H314.52L315.515 205.315H316.013L318.003 203.327H318.501L320.989 200.841H321.487L325.468 196.864H325.966L330.445 192.39V191.893L334.924 187.419V186.922L336.915 184.933V184.436L338.905 182.447V181.95L340.398 180.459V179.962L341.393 178.967V178.47L342.389 177.476V176.979L343.882 175.488V174.99L344.379 174.493V173.996L345.375 173.002V172.505L345.872 172.008V171.511L346.37 171.013V170.516L346.868 170.019V169.522H345.375Z" fill="#09274B"/>
<path d="M392.652 89.4838L389.169 92.9637H388.671L385.685 95.9465H385.187L382.699 98.4321H382.201L380.708 99.9235H380.211L378.718 101.415H378.22L377.225 102.409H376.727L375.732 103.403H375.234L374.239 104.398H373.741L372.746 105.392H372.248L371.751 105.889H371.253L370.258 106.883H369.76L369.262 107.381H368.765L368.267 107.878H367.769L366.774 108.872H366.276L365.779 109.369H365.281L364.783 109.866H364.286L363.788 110.363H363.29L362.793 110.86H362.295L361.797 111.358H361.3L360.802 111.855H360.304L359.807 112.352H359.309L358.811 112.849H357.816L357.318 113.346H356.821L356.323 113.843H355.826L355.328 114.34H354.333L353.835 114.837H353.337L352.84 115.335H352.342L351.844 115.832H350.849L350.351 116.329H349.854L349.356 116.826H348.361L347.863 117.323H347.365L346.868 117.82H345.872L345.375 118.317H344.877L344.379 118.815H343.882L343.384 119.312H342.389L341.891 119.809H341.393L340.896 120.306H339.9L339.403 120.803H338.905L338.407 121.3H337.412L336.915 121.797H336.417L335.919 122.294H334.924L334.426 122.792H333.929L333.431 123.289H332.436L331.938 123.786H331.44L330.943 124.283H329.947L329.45 124.78H328.454L327.957 125.277H326.961L326.464 125.774H325.966L325.468 126.272H324.473L323.975 126.769H322.98L322.482 127.266H321.487L320.989 127.763H319.994L319.496 128.26H318.501L318.004 128.757H317.008L316.511 129.254H315.515L315.018 129.751H314.022L313.525 130.249H312.529L312.032 130.746H310.539L310.041 131.243H309.046L308.548 131.74H307.553L307.055 132.237H305.562L305.064 132.734H304.069L303.571 133.231H302.078L301.581 133.729H300.088L299.59 134.226H298.595L298.097 134.723H296.604L296.107 135.22H294.614L294.116 135.717H292.623L292.125 136.214H290.632L290.135 136.711H289.139L288.642 137.208H287.149L286.651 137.706H285.158L284.66 138.203H283.167L282.67 138.7H281.177L280.679 139.197H279.186L278.689 139.694H277.196L276.698 140.191H275.205L274.707 140.688H273.214L272.717 141.185H271.224L270.726 141.683H269.731L269.233 142.18H267.74L267.242 142.677H266.247L265.749 143.174H264.754L264.256 143.671H262.763L262.266 144.168H261.27L260.773 144.665H259.778L259.28 145.163H258.285L257.787 145.66H256.792L256.294 146.157H255.299L254.801 146.654H254.303L253.806 147.151H252.81L252.313 147.648H251.815L251.317 148.145H250.322L249.824 148.642H249.327L248.829 149.14H247.834L247.336 149.637H246.838L246.341 150.134H245.843L245.345 150.631H244.848L244.35 151.128H243.355L242.857 151.625H242.359L241.862 152.122H241.364L240.867 152.62H240.369L239.374 153.614H238.876L238.378 154.111H237.881L237.383 154.608H236.885L236.388 155.105H235.89L235.392 155.602H234.895L233.899 156.597H233.402L232.904 157.094H232.406L231.411 158.088H230.913L229.918 159.082H229.42L228.923 159.579H228.425L226.932 161.071H226.434L225.439 162.065H224.941L222.951 164.054H222.453L219.965 166.539H219.467L209.016 176.979V177.476L207.026 179.465V179.962L205.035 181.95V182.447L203.542 183.939V184.436L202.049 185.927V186.424L201.054 187.419V187.916L200.059 188.91V189.407L199.063 190.402V190.899L198.068 191.893V192.39L197.073 193.384V193.881L196.575 194.379V194.876L195.58 195.87V196.367L195.082 196.864V197.361L194.087 198.356V198.853L193.589 199.35V199.847L193.091 200.344V200.841L192.594 201.338V201.836L192.096 202.333V202.83L191.101 203.824V204.321L190.603 204.818V205.316L190.105 205.813V206.31L189.608 206.807V207.304L189.11 207.801V208.795L188.612 209.293V209.79L188.115 210.287V210.784L187.617 211.281V211.778L187.119 212.275V212.772L186.622 213.27V214.264L186.124 214.761V215.258L185.626 215.755V216.252L185.129 216.75V217.744L184.631 218.241V218.738L184.133 219.235V220.229L183.636 220.727V221.721L183.138 222.218V222.715L182.641 223.212V224.207L182.143 224.704V226.195L182.641 226.692H183.138L183.636 226.195H184.133V225.698L185.129 224.704V224.207L186.124 223.212V222.715L187.617 221.224V220.727L189.11 219.235V218.738L190.603 217.247V216.75L192.594 214.761V214.264L195.082 211.778V211.281L205.533 200.841H206.03L208.519 198.356H209.016L210.509 196.864H211.007L212.002 195.87H212.5L213.495 194.876H213.993L214.988 193.881H215.486L216.481 192.887H216.979L217.477 192.39H217.974L218.97 191.396H219.467L219.965 190.899H220.463L220.96 190.402H221.458L221.955 189.904H222.453L222.951 189.407H223.448L223.946 188.91H224.444L224.941 188.413H225.439L225.937 187.916H226.434L226.932 187.419H227.43L227.927 186.922H228.923L229.42 186.424H229.918L230.416 185.927H231.411L231.909 185.43H232.406L232.904 184.933H233.899L234.397 184.436H235.392L235.89 183.939H236.885L237.383 183.442H238.876L239.374 182.945H240.369L240.867 182.447H241.862L242.359 181.95H243.852L244.35 181.453H246.341L246.838 180.956H248.331L248.829 180.459H250.82L251.317 179.962H253.308L253.806 179.465H255.796L256.294 178.968H259.28L259.778 178.47H262.266L262.763 177.973H265.252L265.749 177.476H268.735L269.233 176.979H272.219L272.717 176.482H276.2L276.698 175.985H279.186L279.684 175.488H282.67L283.167 174.99H285.656L286.153 174.493H289.139L289.637 173.996H291.628L292.125 173.499H294.614L295.111 173.002H297.102L297.6 172.505H299.59L300.088 172.008H302.078L302.576 171.511H304.567L305.064 171.013H306.557L307.055 170.516H309.046L309.543 170.019H311.036L311.534 169.522H312.529L313.027 169.025H314.52L315.018 168.528H316.013L316.511 168.031H317.506L318.004 167.533H319.496L319.994 167.036H320.989L321.487 166.539H322.482L322.98 166.042H323.975L324.473 165.545H324.971L325.468 165.048H326.464L326.961 164.551H327.957L328.454 164.054H328.952L329.45 163.556H329.947L330.445 163.059H331.44L331.938 162.562H332.436L332.933 162.065H333.431L333.929 161.568H334.426L334.924 161.071H335.422L335.919 160.574H336.417L336.915 160.077H337.412L337.91 159.579H338.407L338.905 159.082H339.403L339.9 158.585H340.398L340.896 158.088H341.393L341.891 157.591H342.389L343.384 156.597H343.882L344.379 156.099H344.877L345.872 155.105H346.37L346.868 154.608H347.365L348.361 153.614H348.858L349.854 152.62H350.351L351.347 151.625H351.844L353.337 150.134H353.835L355.328 148.642H355.826L357.318 147.151H357.816L360.304 144.665H360.802L372.746 132.734V132.237L375.234 129.751V129.254L376.727 127.763V127.266L378.22 125.774V125.277L379.215 124.283V123.786L380.211 122.792V122.294L381.206 121.3V120.803L382.201 119.809V119.312L382.699 118.815V118.317L383.694 117.323V116.826L384.192 116.329V115.832L384.69 115.335V114.837L385.187 114.34V113.843L385.685 113.346V112.849L386.183 112.352V111.855L386.68 111.358V110.86L387.178 110.363V109.866L387.676 109.369V108.872L388.173 108.375V107.878L388.671 107.381V106.883L389.169 106.386V105.889L389.666 105.392V104.398L390.164 103.901V103.403L390.662 102.906V101.912L391.159 101.415V100.421L391.657 99.9235V98.9293L392.155 98.4321V97.4379L392.652 96.9407V95.9465L393.15 95.4493V93.958L393.648 93.4608V91.9694L394.145 91.4723V89.9809L393.648 89.4838H392.652Z" fill="#09274B"/>
<path d="M423.507 0V0.497132L422.512 1.4914V1.98853L420.023 4.47419V4.97132L408.08 16.9025H407.582L404.596 19.8853H404.098L402.108 21.8738H401.61L399.619 23.8623H399.122L397.629 25.3537H397.131L395.638 26.8451H395.141L394.145 27.8394H393.648L392.652 28.8337H392.155L391.159 29.8279H390.662L389.666 30.8222H389.169L388.173 31.8164H387.676L386.68 32.8107H386.183L385.187 33.805H384.69L384.192 34.3021H383.694L382.699 35.2964H382.201L381.704 35.7935H381.206L380.211 36.7878H379.713L379.215 37.2849H378.718L378.22 37.782H377.722L376.727 38.7763H376.23L375.732 39.2734H375.234L374.737 39.7706H374.239L373.741 40.2677H373.244L372.248 41.262H371.751L371.253 41.7591H370.258L369.262 42.7533H368.765L368.267 43.2505H367.769L367.272 43.7476H366.774L366.276 44.2447H365.281L364.783 44.7419H364.286L363.788 45.239H363.29L362.793 45.7361H362.295L361.797 46.2333H361.3L360.802 46.7304H360.304L359.807 47.2275H359.309L358.811 47.7247H358.314L357.816 48.2218H356.821L356.323 48.7189H355.826L355.328 49.2161H354.83L354.333 49.7132H353.835L353.337 50.2103H352.84L352.342 50.7075H351.347L350.849 51.2046H350.351L349.854 51.7017H349.356L348.858 52.1989H347.863L347.365 52.696H346.868L346.37 53.1931H345.375L344.877 53.6902H344.379L343.882 54.1874H343.384L342.886 54.6845H341.891L341.393 55.1816H340.896L340.398 55.6788H339.403L338.905 56.1759H338.407L337.91 56.673H336.915L336.417 57.1702H335.919L335.422 57.6673H334.426L333.929 58.1644H333.431L332.933 58.6616H331.938L331.44 59.1587H330.943L330.445 59.6558H329.45L328.952 60.153H327.957L327.459 60.6501H326.961L326.464 61.1472H325.468L324.971 61.6444H323.975L323.478 62.1415H322.98L322.482 62.6386H321.487L320.989 63.1358H319.994L319.496 63.6329H318.999L318.501 64.13H317.506L317.008 64.6272H316.013L315.515 65.1243H314.52L314.022 65.6214H313.027L312.529 66.1185H312.032L311.534 66.6157H310.539L310.041 67.1128H309.046L308.548 67.6099H307.553L307.055 68.1071H306.06L305.562 68.6042H304.567L304.069 69.1013H303.074L302.576 69.5985H301.581L301.083 70.0956H300.088L299.59 70.5927H298.595L298.097 71.0899H297.102L296.604 71.587H295.609L295.111 72.0841H294.116L293.618 72.5813H292.125L291.628 73.0784H291.13L290.632 73.5755H289.637L289.139 74.0727H287.646L287.149 74.5698H286.153L285.656 75.0669H284.66L284.163 75.5641H283.167L282.67 76.0612H281.674L281.177 76.5583H280.181L279.684 77.0555H278.689L278.191 77.5526H276.698L276.2 78.0497H275.205L274.707 78.5468H273.712L273.214 79.044H272.219L271.721 79.5411H270.726L270.228 80.0382H269.233L268.735 80.5354H267.74L267.242 81.0325H266.247L265.749 81.5296H264.754L264.256 82.0268H263.261L262.763 82.5239H261.768L261.27 83.021H260.275L259.778 83.5182H258.782L258.285 84.0153H257.289L256.792 84.5124H255.796L255.299 85.0096H254.303L253.806 85.5067H252.81L252.313 86.0038H251.317L250.82 86.501H250.322L249.824 86.9981H248.829L248.331 87.4952H247.336L246.838 87.9924H245.843L245.345 88.4895H244.848L244.35 88.9866H243.355L242.857 89.4837H242.359L241.862 89.9809H240.867L240.369 90.478H239.871L239.374 90.9751H238.378L237.881 91.4723H237.383L236.885 91.9694H236.388L235.89 92.4665H234.895L234.397 92.9637H233.899L233.402 93.4608H232.904L232.406 93.9579H231.909L231.411 94.4551H230.416L229.918 94.9522H229.42L228.923 95.4493H228.425L227.927 95.9465H227.43L226.932 96.4436H226.434L225.439 97.4379H224.444L223.448 98.4321H222.951L222.453 98.9293H221.956L221.458 99.4264H220.96L220.463 99.9235H219.965L218.97 100.918H218.472L217.974 101.415H217.477L216.481 102.409H215.984L214.988 103.403H214.491L213.993 103.901H213.495L212.002 105.392H211.505L210.509 106.386H210.012L208.519 107.878H208.021L206.528 109.369H206.03L203.542 111.855H203.044L192.096 122.792V123.289L190.105 125.277V125.774L188.115 127.763V128.26L186.622 129.751V130.249L185.626 131.243V131.74L184.631 132.734V133.231L183.636 134.226V134.723L182.641 135.717V136.214L182.143 136.711V137.208L181.148 138.203V138.7L180.152 139.694V140.191L179.655 140.688V141.185L179.157 141.683V142.18L178.162 143.174V143.671L177.664 144.168V144.665L177.166 145.163V145.66L176.669 146.157V146.654L176.171 147.151V147.648L175.176 148.642V149.637L174.18 150.631V151.128L173.683 151.625V152.122L173.185 152.62V153.117L172.687 153.614V154.608L172.19 155.105V155.602L171.692 156.099V156.597L171.194 157.094V157.591L170.697 158.088V158.585L170.199 159.082V159.579L169.701 160.076V160.574L169.204 161.071V162.065L168.706 162.562V163.059L168.208 163.556V164.054L167.711 164.551V165.048L167.213 165.545V166.539L166.715 167.036V167.533L166.218 168.031V169.025L165.72 169.522V170.019L165.222 170.516V171.013L164.725 171.511V172.505L164.227 173.002V173.499L163.73 173.996V174.99L163.232 175.488V175.985L162.734 176.482V176.979L162.237 177.476V178.47L161.739 178.967V179.465L161.241 179.962V180.459L160.744 180.956V181.453L160.246 181.95V182.945L159.748 183.442V183.939L159.251 184.436V184.933L158.753 185.43V185.927L158.255 186.424V186.922L157.758 187.419V187.916L157.26 188.413V188.91L156.762 189.407V189.904L155.767 190.899V191.396L155.269 191.893V192.39L154.274 193.384V193.881L152.283 195.87V196.367L147.307 201.338H146.809L145.316 202.83H144.818L143.326 204.321H142.828L142.33 204.818H141.833L141.335 205.315H140.837L140.34 205.813H139.842L139.344 206.31H138.847L138.349 206.807H137.851L137.354 207.304H136.358L135.861 207.801H134.865L134.368 208.298H133.372L132.875 208.795H130.884L130.386 209.293H125.41L124.912 209.79H122.424L121.926 209.293H121.429L120.931 209.79H119.936L119.438 209.293H106.996L106.499 208.795H93.0621L92.5644 208.298H38.3197L37.822 208.795H20.9016L20.404 209.293H10.9485L10.4508 209.79H2.98595L2.48829 210.287H0.497658L0 210.784V211.281L0.497658 211.778H5.9719L6.46955 212.275L6.96721 211.778L7.46487 212.275H13.4368L13.9344 212.772H17.418L17.9157 213.27H21.3993L21.897 213.767H24.8829L25.3806 214.264H27.8689L28.3665 214.761H31.3525L31.8501 215.258H33.8407L34.3384 215.755H35.8314L36.329 216.252H38.3197L38.8173 216.75H40.3103L40.808 217.247H42.7986L43.2963 217.744H44.7892L45.2869 218.241H46.7799L47.2775 218.738H48.2728L48.7705 219.235H50.2635L50.7611 219.732H52.2541L52.7518 220.229H53.7471L54.2447 220.727H55.24L55.7377 221.224H57.2307L57.7283 221.721H58.7237L59.2213 222.218H60.2166L60.7143 222.715H61.7096L62.2073 223.212H63.2026L63.7002 223.709H64.6955L65.1932 224.207H66.1885L66.6862 224.704H67.6815L68.1792 225.201H68.6768L69.1745 225.698H70.1698L70.6674 226.195H71.6628L72.1604 226.692H72.6581L73.1557 227.189H74.1511L74.6487 227.686H75.644L76.1417 228.184H76.6393L77.137 228.681H78.1323L78.63 229.178H79.1276L79.6253 229.675H80.1229L80.6206 230.172H81.6159L82.1136 230.669H82.6112L83.1089 231.166H84.1042L84.6019 231.663H85.0995L85.5972 232.161H86.0948L86.5925 232.658H87.0902L87.5878 233.155H88.0855L88.5831 233.652H89.5785L90.0761 234.149H90.5738L91.0714 234.646H91.5691L92.0667 235.143H92.5644L93.0621 235.641H93.5597L94.0574 236.138H94.555L95.0527 236.635H95.5504L96.048 237.132H96.5457L97.0433 237.629H97.541L98.5363 238.623H99.034L99.5316 239.12H100.029L100.527 239.618H101.025L101.522 240.115H102.02L103.015 241.109H103.513L104.011 241.606H104.508L105.006 242.103H105.504L106.499 243.098H106.996L107.494 243.595H107.992L108.489 244.092H108.987L109.982 245.086H110.48L110.978 245.583H111.475L112.471 246.577H112.968L113.466 247.075H113.964L114.959 248.069H115.457L116.452 249.063H116.95L117.447 249.56H117.945L118.94 250.554H119.438L119.936 251.052H120.433L121.429 252.046H121.926L122.424 252.543H122.922L123.419 253.04H123.917L124.912 254.034H125.41L125.907 254.532H126.405L126.903 255.029H127.4L127.898 255.526H128.396L128.893 256.023H129.391L129.889 256.52H130.386L130.884 257.017H131.382L131.879 257.514H132.377L132.875 258.011H133.372L133.87 258.509H134.865L135.363 259.006H136.358L136.856 259.503H138.349L138.847 260H142.33L142.828 259.503H144.321L144.818 259.006H145.814L146.311 258.509H146.809L147.307 258.011H147.804L148.302 257.514H148.8L149.795 256.52H150.293L152.781 254.034H153.279L155.767 251.549V251.052L158.753 248.069V247.572L160.246 246.08V245.583L161.739 244.092V243.595L162.734 242.6V242.103L163.232 241.606V241.109L164.227 240.115V239.618L164.725 239.12V238.623L165.72 237.629V237.132L166.218 236.635V236.138L166.715 235.641V235.143L167.213 234.646V234.149L167.711 233.652V233.155L168.208 232.658V232.161L168.706 231.663V231.166L169.204 230.669V230.172L169.701 229.675V229.178L170.199 228.681V228.184L170.697 227.686V226.692L171.194 226.195V225.698L171.692 225.201V224.704L172.19 224.207V223.709L172.687 223.212V222.715L173.185 222.218V221.224L173.683 220.727V220.229L174.18 219.732V219.235L174.678 218.738V217.744L175.176 217.247V216.75L175.673 216.252V215.755L176.171 215.258V214.264L176.669 213.767V213.27L177.166 212.772V212.275L177.664 211.778V211.281L178.162 210.784V210.287L178.659 209.79V208.795L179.157 208.298V207.801L179.655 207.304V206.807L180.152 206.31V205.813L180.65 205.315V204.818L181.148 204.321V203.824L181.645 203.327V202.83L182.143 202.333V201.836L182.641 201.338V200.841L183.138 200.344V199.847L183.636 199.35V198.853L184.133 198.356V197.859L184.631 197.361V196.864L185.129 196.367V195.87L185.626 195.373V194.876L186.124 194.379V193.881L187.119 192.887V192.39L187.617 191.893V191.396L188.115 190.899V190.402L188.612 189.904V189.407L189.608 188.413V187.916L190.105 187.419V186.922L191.101 185.927V185.43L191.598 184.933V184.436L192.594 183.442V182.945L193.091 182.447V181.95L194.087 180.956V180.459L195.082 179.465V178.967L196.077 177.973V177.476L197.57 175.985V175.488L198.566 174.493V173.996L200.059 172.505V172.008L201.552 170.516V170.019L204.04 167.533V167.036L207.523 163.556V163.059L216.481 154.111H216.979L219.965 151.128H220.463L222.453 149.14H222.951L224.444 147.648H224.941L225.937 146.654H226.434L227.927 145.163H228.425L228.923 144.665H229.42L230.416 143.671H230.913L231.909 142.677H232.406L232.904 142.18H233.402L234.397 141.185H234.895L235.392 140.688H235.89L236.885 139.694H237.383L237.881 139.197H238.378L238.876 138.7H239.374L239.871 138.203H240.369L240.867 137.706H241.364L241.862 137.208H242.359L242.857 136.711H243.355L243.852 136.214H244.35L244.848 135.717H245.843L246.341 135.22H246.838L247.336 134.723H247.834L248.331 134.226H249.327L249.824 133.728H250.322L250.82 133.231H251.317L251.815 132.734H252.81L253.308 132.237H253.806L254.303 131.74H255.299L255.796 131.243H256.792L257.289 130.746H258.285L258.782 130.249H259.778L260.275 129.751H261.27L261.768 129.254H262.763L263.261 128.757H264.256L264.754 128.26H265.749L266.247 127.763H267.74L268.238 127.266H269.233L269.731 126.769H271.224L271.721 126.272H273.214L273.712 125.774H274.707L275.205 125.277H276.698L277.196 124.78H278.689L279.186 124.283H280.679L281.177 123.786H282.172L282.67 123.289H284.163L284.66 122.792H286.153L286.651 122.294H288.144L288.642 121.797H289.637L290.135 121.3H291.628L292.125 120.803H294.116L294.614 120.306H295.609L296.107 119.809H298.097L298.595 119.312H299.59L300.088 118.815H301.581L302.078 118.317H304.069L304.567 117.82H306.06L306.557 117.323H308.05L308.548 116.826H309.543L310.041 116.329H311.534L312.032 115.832H313.525L314.022 115.335H315.515L316.013 114.837H317.506L318.004 114.34H319.496L319.994 113.843H320.989L321.487 113.346H322.98L323.478 112.849H324.473L324.971 112.352H325.966L326.464 111.855H327.459L327.957 111.358H329.45L329.947 110.86H330.943L331.44 110.363H332.436L332.933 109.866H333.929L334.426 109.369H335.422L335.919 108.872H336.915L337.412 108.375H338.407L338.905 107.878H339.403L339.9 107.38H340.896L341.393 106.883H342.389L342.886 106.386H343.384L343.882 105.889H344.877L345.375 105.392H346.37L346.868 104.895H347.365L347.863 104.398H348.361L348.858 103.901H349.854L350.351 103.403H350.849L351.347 102.906H351.844L352.342 102.409H353.337L353.835 101.912H354.333L354.83 101.415H355.328L355.826 100.918H356.323L356.821 100.421H357.318L357.816 99.9235H358.314L358.811 99.4264H359.309L359.807 98.9293H360.304L360.802 98.4321H361.3L361.797 97.935H362.295L362.793 97.4379H363.29L364.286 96.4436H364.783L365.281 95.9465H365.779L366.774 94.9522H367.272L367.769 94.4551H368.267L369.262 93.4608H369.76L370.258 92.9637H370.755L371.751 91.9694H372.248L373.244 90.9751H373.741L374.737 89.9809H375.234L376.23 88.9866H376.727L378.22 87.4952H378.718L380.211 86.0038H380.708L382.201 84.5124H382.699L384.69 82.5239H385.187L389.169 78.5468H389.666L396.633 71.587V71.0899L400.117 67.6099V67.1128L402.108 65.1243V64.6272L404.098 62.6386V62.1415L405.094 61.1472V60.6501L406.587 59.1587V58.6616L407.084 58.1644V57.6673L408.08 56.673V56.1759L409.075 55.1816V54.6845L410.07 53.6902V53.1931L410.568 52.696V52.1989L411.563 51.2046V50.7075L412.061 50.2103V49.7132L412.559 49.2161V48.7189L413.056 48.2218V47.7247L413.554 47.2275V46.7304L414.052 46.2333V45.7361L414.549 45.239V44.7419L415.047 44.2447V43.7476L415.544 43.2505V42.7533L416.042 42.2562V41.7591L416.54 41.262V40.2677L417.037 39.7706V39.2734L417.535 38.7763V38.2792L418.033 37.782V36.7878L418.53 36.2906V35.7935L419.028 35.2964V34.3021L419.526 33.805V32.8107L420.023 32.3136V31.3193L420.521 30.8222V29.8279L421.019 29.3308V28.3365L421.516 27.8394V26.8451L422.014 26.348V24.8566L422.512 24.3595V22.8681L423.009 22.3709V20.8795L423.507 20.3824V18.3939L424.005 17.8967V15.4111L424.502 14.914V11.9312L425 11.434V0H423.507Z" fill="#09274B"/>
</svg>
